<svg version="1.1" id="Layer_1" xmlns="http://www.w3.org/2000/svg" xmlns:xlink="http://www.w3.org/1999/xlink" x="0px" y="0px"
	 width="100%" viewBox="0 0 512 512" enable-background="new 0 0 512 512" xml:space="preserve">
<path fill="#FFFFFF" opacity="1.000000" stroke="none" 
	d="
M1.000000,174.000000 
	C1.000000,116.000000 1.000000,58.500000 1.000000,1.000000 
	C171.666672,1.000000 342.333344,1.000000 513.000000,1.000000 
	C513.000000,171.666672 513.000000,342.333344 513.000000,513.000000 
	C342.333344,513.000000 171.666672,513.000000 1.000000,513.000000 
	C1.000000,400.166656 1.000000,287.333344 1.000000,174.000000 
M10.008353,239.417694 
	C12.805261,257.292084 20.996193,272.362396 33.729050,285.076630 
	C45.752544,297.082550 57.709743,309.155914 69.838150,321.054840 
	C72.160797,323.333527 73.067932,325.613892 73.062119,328.854401 
	C72.968338,381.174988 72.994370,433.495819 72.997536,485.816589 
	C72.998344,499.095978 78.898529,505.002075 92.168724,505.002350 
	C201.975677,505.004639 311.782654,505.004486 421.589600,505.002594 
	C435.185089,505.002380 441.002594,499.172119 441.002838,485.552551 
	C441.004486,394.574402 441.008057,303.596252 440.984009,212.618088 
	C440.983246,209.751114 441.081635,207.607864 444.231934,205.738098 
	C483.815369,182.244705 503.947998,147.204071 504.923859,101.319778 
	C505.380798,79.834648 505.008240,58.331764 504.990723,36.836941 
	C504.989716,35.579975 504.801056,34.323166 504.687866,32.919247 
	C474.890381,34.058243 447.585205,27.029686 422.837067,10.972713 
	C418.409912,8.100305 415.169128,8.347503 410.912537,11.124834 
	C392.049408,23.432558 371.303223,30.538116 348.835236,32.385201 
	C342.276001,32.924431 335.679443,33.009960 328.724396,33.320202 
	C328.724396,46.737774 328.724396,59.812847 328.724396,72.655609 
	C323.244293,72.655609 318.167023,72.655609 313.090851,72.655609 
	C315.624756,34.576279 288.660828,11.057047 260.941925,9.147494 
	C246.578537,8.158000 233.555664,12.167947 222.324554,21.156746 
	C205.825195,34.361958 199.724854,52.147442 201.056152,72.996246 
	C198.815796,72.996246 197.175446,72.996239 195.535095,72.996246 
	C160.876755,72.996300 126.218407,72.991165 91.560059,72.999191 
	C79.104248,73.002075 73.003357,79.180168 72.998253,91.777092 
	C72.990623,110.605904 72.996262,129.434723 72.996246,148.263535 
	C72.996239,149.842819 72.996246,151.422119 72.996246,152.986816 
	C59.939323,153.814377 48.250118,157.091354 38.502800,164.933807 
	C14.928596,183.900970 6.563045,209.000168 10.008353,239.417694 
z"/>
<path fill="#030202" opacity="1.000000" stroke="none" 
	d="
M9.961777,238.978790 
	C6.563045,209.000168 14.928596,183.900970 38.502800,164.933807 
	C48.250118,157.091354 59.939323,153.814377 72.996246,152.986816 
	C72.996246,151.422119 72.996239,149.842819 72.996246,148.263535 
	C72.996262,129.434723 72.990623,110.605904 72.998253,91.777092 
	C73.003357,79.180168 79.104248,73.002075 91.560059,72.999191 
	C126.218407,72.991165 160.876755,72.996300 195.535095,72.996246 
	C197.175446,72.996239 198.815796,72.996246 201.056152,72.996246 
	C199.724854,52.147442 205.825195,34.361958 222.324554,21.156746 
	C233.555664,12.167947 246.578537,8.158000 260.941925,9.147494 
	C288.660828,11.057047 315.624756,34.576279 313.090851,72.655609 
	C318.167023,72.655609 323.244293,72.655609 328.724396,72.655609 
	C328.724396,59.812847 328.724396,46.737774 328.724396,33.320202 
	C335.679443,33.009960 342.276001,32.924431 348.835236,32.385201 
	C371.303223,30.538116 392.049408,23.432558 410.912537,11.124834 
	C415.169128,8.347503 418.409912,8.100305 422.837067,10.972713 
	C447.585205,27.029686 474.890381,34.058243 504.687866,32.919247 
	C504.801056,34.323166 504.989716,35.579975 504.990723,36.836941 
	C505.008240,58.331764 505.380798,79.834648 504.923859,101.319778 
	C503.947998,147.204071 483.815369,182.244705 444.231934,205.738098 
	C441.081635,207.607864 440.983246,209.751114 440.984009,212.618088 
	C441.008057,303.596252 441.004486,394.574402 441.002838,485.552551 
	C441.002594,499.172119 435.185089,505.002380 421.589600,505.002594 
	C311.782654,505.004486 201.975677,505.004639 92.168724,505.002350 
	C78.898529,505.002075 72.998344,499.095978 72.997536,485.816589 
	C72.994370,433.495819 72.968338,381.174988 73.062119,328.854401 
	C73.067932,325.613892 72.160797,323.333527 69.838150,321.054840 
	C57.709743,309.155914 45.752544,297.082550 33.729050,285.076630 
	C20.996193,272.362396 12.805261,257.292084 9.961777,238.978790 
M331.936920,368.065887 
	C331.936920,368.065887 331.840942,368.107544 331.986298,368.633789 
	C332.284149,368.821808 332.582001,369.009796 332.926392,369.083008 
	C332.926392,369.083008 332.821777,369.149323 333.099945,369.760040 
	C334.026855,371.061157 334.953796,372.362305 336.181763,374.086029 
	C337.667938,372.101593 338.413330,371.106293 339.065216,370.078552 
	C339.065216,370.078552 339.097076,370.172302 339.605896,369.977692 
	C339.772797,369.667328 339.939697,369.356964 340.023376,369.023499 
	C340.023376,369.023499 340.065460,369.098938 340.671570,368.813965 
	C342.837219,366.248657 345.002838,363.683350 347.053741,361.053894 
	C347.053741,361.053894 347.124878,361.164429 347.677155,360.943970 
	C348.281464,360.178467 348.885773,359.412964 349.550140,358.525177 
	C349.550140,358.525177 349.665833,358.453247 350.170441,358.110016 
	C351.204529,356.816681 352.238617,355.523346 353.168030,354.160370 
	C353.168030,354.160370 353.163910,354.286041 353.715027,354.087708 
	C353.889771,353.749481 354.064514,353.411285 354.679871,352.933075 
	C354.946686,352.734436 355.085480,352.468872 355.677246,351.904877 
	C356.452393,350.935699 357.227539,349.966522 358.000000,349.000000 
	C358.000000,349.000000 357.997559,349.003235 358.526123,348.775146 
	C358.837830,348.300293 359.149567,347.825470 359.440216,347.231812 
	C359.440216,347.231812 359.535767,347.305542 360.123932,346.875061 
	C361.650421,343.022308 358.166962,345.135986 357.578430,345.129700 
	C342.427856,344.967285 327.275208,344.996857 312.122925,344.993805 
	C307.183350,344.992798 302.243774,344.993622 297.259216,344.993622 
	C297.259216,366.578522 297.259216,387.630707 297.259216,408.739685 
	C318.580841,408.739685 339.632996,408.739685 360.752991,408.739685 
	C360.752991,396.084167 360.752991,383.699860 360.752991,370.463440 
	C359.458374,372.041229 358.672363,372.999176 357.407867,374.091431 
	C357.113037,374.305542 356.976501,374.594452 356.384583,375.221436 
	C355.157410,376.737823 353.930267,378.254242 352.819763,379.828186 
	C352.819763,379.828186 352.801605,379.699371 352.275177,379.898865 
	C352.102203,380.224548 351.929230,380.550232 351.893219,380.899261 
	C351.893219,380.899261 351.870605,380.762146 351.337311,380.961853 
	C351.162415,381.289459 350.987518,381.617065 350.358063,382.067841 
	C350.061951,382.255798 349.927246,382.524658 349.414734,383.120636 
	C348.959717,383.748077 348.504669,384.375549 347.418610,385.318390 
	C343.989899,387.619415 340.722412,390.077026 338.188049,394.013428 
	C337.138550,394.002686 336.089020,393.991974 334.550964,393.826447 
	C334.368896,393.547394 334.186798,393.268341 333.827972,392.519501 
	C333.550751,392.347443 333.273529,392.175385 333.000000,392.000000 
	C333.000000,392.000000 332.996765,392.003723 332.818359,391.533325 
	C332.541840,391.357727 332.265289,391.182159 332.000000,391.000000 
	C332.000000,391.000000 331.993469,391.011292 331.832825,390.541443 
	C331.647797,390.242035 331.383118,390.055969 330.997559,389.999664 
	C330.997559,389.999664 331.017273,389.959839 330.832581,389.500092 
	C330.626556,389.216248 330.350037,389.049011 329.422638,388.728149 
	C328.282349,387.484100 327.142059,386.240051 325.822693,384.525635 
	C325.545441,384.351929 325.268158,384.178223 325.000000,384.000000 
	C325.000000,384.000000 324.995575,384.008850 324.819824,383.536102 
	C324.543335,383.358978 324.266846,383.181885 324.000000,383.000000 
	C324.000000,383.000000 323.995209,383.009644 323.827850,382.538818 
	C323.635803,382.241608 323.366211,382.058685 322.998932,382.000000 
	C322.998932,382.000000 323.010223,381.980530 322.826202,381.515198 
	C322.548279,381.344299 322.270386,381.173370 321.391602,380.714539 
	C316.570892,376.281219 311.750153,371.847900 307.513702,367.951904 
	C311.900055,363.202942 315.318176,359.502258 318.820770,355.710114 
	C322.944000,359.623901 326.877472,363.357574 330.979736,367.616547 
	C331.285980,367.798737 331.592224,367.980957 331.936920,368.065887 
M290.298889,43.795013 
	C290.298889,43.795013 290.449890,43.703880 290.306030,43.120052 
	C289.912750,42.691559 289.519440,42.263065 289.111115,41.935318 
	C289.111115,41.935318 289.199249,41.884277 289.087524,41.349987 
	C288.825012,41.118046 288.562500,40.886105 288.326721,40.906963 
	C288.326721,40.906963 288.346375,40.653511 288.140564,40.022255 
	C285.902252,37.881401 283.663940,35.740547 281.307770,33.560749 
	C281.307770,33.560749 281.398926,33.644955 281.082855,33.104813 
	C280.192963,32.576279 279.303070,32.047745 278.383026,31.930632 
	C278.383026,31.930632 278.383179,31.518755 278.084961,31.102716 
	C277.764404,30.998131 277.443878,30.893545 277.073883,30.912704 
	C277.073883,30.912704 277.181091,30.833574 276.787415,30.246958 
	C263.322968,23.278591 249.959320,22.734137 236.069702,31.006392 
	C224.414490,38.517941 217.967987,49.096615 217.034134,63.929173 
	C217.034134,66.842644 217.034134,69.756111 217.034134,72.790161 
	C222.524292,72.790161 227.552399,72.790161 232.518005,72.790161 
	C233.044983,67.378593 233.550430,62.188126 234.567688,56.531380 
	C236.369553,53.612587 238.171432,50.693798 240.596542,47.549290 
	C248.426300,40.463108 257.327545,39.552021 267.673340,43.192101 
	C270.152039,45.117207 272.630707,47.042309 275.337891,49.572842 
	C276.476257,51.130516 277.614624,52.688187 278.796967,54.138538 
	C278.796967,54.138538 278.685547,54.170746 278.832764,54.949902 
	C279.850098,60.874062 280.867401,66.798225 281.883209,72.713654 
	C286.669189,72.713654 291.714600,72.713654 296.882690,72.713654 
	C297.340668,63.263775 297.010132,54.283138 291.935669,45.635136 
	C291.698425,45.393890 291.461212,45.152645 291.091583,44.367779 
	C290.830322,44.118145 290.569061,43.868515 290.298889,43.795013 
M379.610718,199.538391 
	C379.102142,199.272263 378.593536,199.006119 377.766754,198.163666 
	C358.610870,184.157455 345.181122,165.795486 336.261505,143.104965 
	C335.090912,139.402435 333.920319,135.699890 332.822205,131.443924 
	C332.567505,130.961792 332.312836,130.479645 332.136200,129.330490 
	C331.846680,128.524170 331.557190,127.717850 331.299896,126.250351 
	C331.192810,125.830765 331.085724,125.411179 331.057953,124.133514 
	C331.284454,119.896469 328.125488,121.027176 325.907684,121.026031 
	C259.109985,120.991524 192.312286,120.996384 125.514580,121.008171 
	C124.079643,121.008430 122.644745,121.162117 121.164612,121.246826 
	C121.164612,134.735413 121.164612,147.869339 121.014786,161.849518 
	C121.064659,163.564316 121.114532,165.279129 121.016029,167.828247 
	C121.647163,170.276764 122.278305,172.725266 123.144653,175.801666 
	C124.790466,177.862717 126.436287,179.923752 128.580109,182.608459 
	C132.961777,178.018661 136.224579,174.261581 139.835907,170.876282 
	C156.168167,155.566193 175.342514,149.639099 197.286835,154.764771 
	C222.659180,160.691147 236.972137,178.311920 245.016663,201.886490 
	C250.260941,217.254944 250.203445,232.904831 245.841232,249.003143 
	C247.861771,249.003143 249.487579,249.003189 251.113403,249.003113 
	C270.602722,249.002045 290.092377,248.941635 309.580994,249.058090 
	C312.839294,249.077530 314.660187,248.369141 316.453125,245.162888 
	C321.342255,236.419617 329.301025,232.375397 339.348328,233.134674 
	C348.715973,233.842590 357.157074,240.694397 359.846466,249.739746 
	C362.720764,259.407227 360.387573,267.895538 353.004242,274.744019 
	C343.319092,283.727570 330.602478,282.990753 318.747070,272.408051 
	C317.835815,271.260895 316.924561,270.113708 315.979156,268.470795 
	C315.823151,268.137299 315.561584,267.956299 315.103760,267.074677 
	C313.553741,266.383179 312.007233,265.098663 310.453186,265.089447 
	C288.250916,264.958069 266.046783,265.099731 243.845459,264.905090 
	C239.862045,264.870178 237.663651,266.157471 236.234299,270.274231 
	C233.307922,274.088043 230.755676,278.273071 227.397064,281.658020 
	C195.445480,313.859589 163.368805,345.937195 131.241837,377.963928 
	C130.423019,378.780212 128.619247,378.608459 126.982559,378.272522 
	C125.379852,376.444580 123.777138,374.616638 121.351898,371.850555 
	C121.351898,401.273285 121.351898,429.079163 121.351898,456.691101 
	C212.074799,456.691101 302.430115,456.691101 392.835175,456.691101 
	C392.835175,419.262878 392.835175,382.145966 392.986542,344.280914 
	C392.938873,343.522583 392.891205,342.764221 392.991943,341.170166 
	C392.991943,339.169037 392.991943,337.167938 392.991943,333.838684 
	C389.569458,337.961731 387.154480,340.871033 384.917755,343.927612 
	C384.917755,343.927612 384.777832,343.743530 384.186401,344.024536 
	C382.797363,345.686401 381.408295,347.348297 379.998779,349.000000 
	C379.998779,349.000000 380.010712,349.020233 379.344452,349.365326 
	C378.562653,351.097778 377.108063,352.827423 377.100769,354.563171 
	C377.003448,377.709381 377.108734,400.856445 376.946625,424.538574 
	C376.632080,424.747070 376.317535,424.955597 375.075439,425.015350 
	C344.049286,425.065033 313.023163,425.114685 281.461578,424.946899 
	C281.252991,424.632141 281.044373,424.317413 280.984436,423.075134 
	C280.934875,392.049286 280.885315,361.023438 281.052765,329.462311 
	C281.367279,329.253876 281.681793,329.045410 282.923889,328.986206 
	C312.663269,328.994080 342.403015,329.059418 372.141327,328.884613 
	C374.193420,328.872589 376.234985,327.069977 378.710480,325.990570 
	C378.976837,325.802917 379.099518,325.546509 379.659515,324.956207 
	C380.434753,323.970703 381.209991,322.985229 382.547363,321.749390 
	C383.414551,320.631500 384.281708,319.513641 385.692169,318.153320 
	C385.878113,317.809784 386.064056,317.466278 386.138184,317.102203 
	C386.138184,317.102203 386.171112,317.211029 386.784973,316.923553 
	C391.975250,312.730377 393.249786,307.399719 393.165436,300.746155 
	C392.794434,271.486938 392.895569,242.219467 393.117920,212.957214 
	C393.153229,208.307449 391.672150,205.819565 386.672821,204.320114 
	C386.391022,204.318542 386.109253,204.316986 385.565674,203.960815 
	C383.697754,202.667511 381.829865,201.374222 379.969177,200.005447 
	C379.969177,200.005447 379.904236,200.044632 379.610718,199.538391 
M120.890915,349.612396 
	C123.587845,352.227173 126.284775,354.841949 129.147095,357.617096 
	C159.812012,326.881012 190.055679,296.567139 220.299347,266.253265 
	C219.969818,265.833435 219.640305,265.413574 219.310776,264.993744 
	C202.347687,264.993744 185.383499,264.913452 168.423477,265.141418 
	C167.019180,265.160278 165.086899,266.982330 164.339249,268.446289 
	C156.466812,283.860962 148.795334,299.378143 141.043976,314.854828 
	C139.368057,318.201050 137.594849,321.498566 135.474518,325.571381 
	C127.673492,302.253540 120.190681,279.886871 112.310425,256.332184 
	C109.110703,264.333588 106.466553,271.127258 103.640305,277.844330 
	C103.136505,279.041718 101.898300,280.790558 100.963814,280.812988 
	C91.715332,281.035431 82.459396,280.947601 73.252350,280.947601 
	C73.252350,275.327148 73.252350,270.389313 73.252350,265.016815 
	C77.274467,265.016815 81.110580,264.651276 84.846886,265.105896 
	C89.941116,265.725800 92.309677,263.857727 94.136787,258.978149 
	C100.197151,242.793030 106.859406,226.833282 113.663368,209.857544 
	C122.036789,234.869278 130.123108,259.023438 138.503647,284.056396 
	C143.978485,273.114716 149.144928,263.073761 154.010483,252.889038 
	C155.437866,249.901215 157.156570,248.905319 160.473129,248.931229 
	C181.634201,249.096634 202.799149,248.864960 223.957947,249.139587 
	C228.214066,249.194839 229.734406,247.684296 230.717209,243.909317 
	C233.948975,231.495941 233.847977,219.162689 229.939194,206.998032 
	C215.841537,163.124298 170.824493,158.751358 147.792480,185.406326 
	C142.062576,192.037567 135.625046,198.057373 128.966843,204.920990 
	C120.980331,196.729767 113.916954,188.965744 106.307037,181.780563 
	C85.834618,162.450836 54.741966,165.309738 37.905487,187.825607 
	C18.888649,213.257324 20.832111,248.833755 43.109032,271.591339 
	C68.631355,297.664368 94.608009,323.292664 120.890915,349.612396 
M424.995880,318.500000 
	C424.995880,284.074341 424.995880,249.648666 424.995880,216.107285 
	C419.445282,216.107285 414.340942,216.107285 408.755371,216.107285 
	C408.755371,301.159973 408.755371,387.041931 408.755371,472.651428 
	C307.216034,472.651428 206.160385,472.651428 104.997749,472.651428 
	C104.997749,435.145844 105.008446,397.992828 104.964401,360.839844 
	C104.962318,359.084991 105.085815,356.804779 104.107201,355.666351 
	C99.653725,350.485596 94.826424,345.626190 89.310104,339.778229 
	C89.310104,390.677307 89.310104,439.737701 89.310104,488.698853 
	C201.338608,488.698853 313.057648,488.698853 424.995880,488.698853 
	C424.995880,432.101105 424.995880,375.800537 424.995880,318.500000 
M360.709564,156.748749 
	C373.325134,176.705032 390.688080,190.872589 412.827545,199.021561 
	C415.224548,199.903854 418.514893,200.004410 420.870758,199.105072 
	C453.480316,186.656326 475.140564,163.696198 484.925629,130.180496 
	C492.686584,103.597702 487.444427,76.226036 489.287323,49.222218 
	C488.044220,48.962479 487.423859,48.761559 486.791443,48.711014 
	C462.714874,46.786674 440.200867,39.900440 419.231445,27.836245 
	C417.855225,27.044479 415.189667,27.725248 413.444244,28.471012 
	C403.531921,32.706181 394.017212,38.137516 383.792297,41.307457 
	C371.346588,45.165897 358.330933,47.186035 345.001953,50.124798 
	C345.001953,65.827072 345.127655,82.461433 344.969910,99.093102 
	C344.775726,119.567039 349.728088,138.596924 360.709564,156.748749 
M104.996437,110.601517 
	C104.996437,108.828064 104.996437,107.054604 104.996437,104.893173 
	C179.919632,104.893173 254.322495,104.893173 328.744537,104.893173 
	C328.744537,99.422211 328.744537,94.353127 328.744537,89.271393 
	C248.740448,89.271393 169.011703,89.271393 89.143188,89.271393 
	C89.143188,111.162453 89.143188,132.785858 89.143188,154.368286 
	C94.404259,156.373352 99.561142,158.338730 104.996368,160.410172 
	C104.996368,143.895187 104.996368,127.736603 104.996437,110.601517 
M263.405670,60.343456 
	C260.605988,57.021488 257.190063,55.837345 253.274155,58.048927 
	C247.099365,61.536247 249.415100,67.440468 249.020340,72.807465 
	C254.498123,72.807465 259.562927,72.807465 265.483337,72.807465 
	C264.920654,68.681778 264.396820,64.841110 263.405670,60.343456 
M331.644775,251.088074 
	C330.930969,253.974243 329.217133,257.052643 329.726685,259.703674 
	C330.593994,264.216278 335.958160,266.140411 340.121918,264.274963 
	C344.273804,262.414825 346.080261,257.968475 344.325439,253.928635 
	C342.262115,249.178665 337.743713,247.942886 331.644775,251.088074 
z"/>
<path fill="#EED0B4" opacity="1.000000" stroke="none" 
	d="
M376.003021,425.164124 
	C376.317535,424.955597 376.632080,424.747070 377.407654,424.219208 
	C378.245697,421.922363 378.919128,419.950165 378.954346,417.966644 
	C379.362213,394.985504 379.673706,372.002625 380.010712,349.020233 
	C380.010712,349.020233 379.998779,349.000000 380.386963,348.997437 
	C383.898834,348.608368 385.292694,346.903381 384.777832,343.743530 
	C384.777832,343.743530 384.917755,343.927612 385.175629,343.913208 
	C387.903503,343.267853 390.373535,342.636871 392.843536,342.005890 
	C392.891205,342.764221 392.938873,343.522583 392.656982,344.950195 
	C391.885345,352.553436 391.098389,359.485535 391.061829,366.421631 
	C390.915161,394.230560 390.947998,422.040924 391.065247,449.850128 
	C391.080688,453.515778 390.427704,455.101410 386.192902,455.095215 
	C300.099609,454.969604 214.006058,454.983948 127.912628,455.062683 
	C124.423004,455.065887 122.902092,454.435913 122.909058,450.455444 
	C122.948059,428.157562 122.682678,405.859222 122.577087,383.560791 
	C122.562935,380.571381 123.637550,378.362854 127.274841,378.897491 
	C128.619247,378.608459 130.423019,378.780212 131.241837,377.963928 
	C163.368805,345.937195 195.445480,313.859589 227.397064,281.658020 
	C230.755676,278.273071 233.307922,274.088043 236.900497,270.087952 
	C240.972397,267.149658 244.897919,266.884827 249.128601,266.928223 
	C265.876617,267.099945 282.627869,267.068665 299.376892,266.957764 
	C304.686707,266.922638 310.107391,264.463104 315.194519,267.927795 
	C315.561584,267.956299 315.823151,268.137299 315.992584,269.107727 
	C316.982574,270.834106 317.959137,271.923553 318.935730,273.013000 
	C330.602478,282.990753 343.319092,283.727570 353.004242,274.744019 
	C360.387573,267.895538 362.720764,259.407227 359.846466,249.739746 
	C357.157074,240.694397 348.715973,233.842590 339.348328,233.134674 
	C329.301025,232.375397 321.342255,236.419617 316.453125,245.162888 
	C314.660187,248.369141 312.839294,249.077530 309.580994,249.058090 
	C290.092377,248.941635 270.602722,249.002045 251.113403,249.003113 
	C249.487579,249.003189 247.861771,249.003143 245.841232,249.003143 
	C250.203445,232.904831 250.260941,217.254944 245.016663,201.886490 
	C236.972137,178.311920 222.659180,160.691147 197.286835,154.764771 
	C175.342514,149.639099 156.168167,155.566193 139.835907,170.876282 
	C136.224579,174.261581 132.961777,178.018661 128.580109,182.608459 
	C126.436287,179.923752 124.790466,177.862717 123.182281,175.133133 
	C124.299301,171.488861 124.882401,168.649689 121.164398,166.993927 
	C121.114532,165.279129 121.064659,163.564316 121.472839,161.318710 
	C122.286842,159.258469 122.934151,157.732224 122.950806,156.199097 
	C123.048538,147.207306 123.315681,138.198441 122.876472,129.227097 
	C122.625801,124.106995 124.171280,122.866364 129.234512,122.880493 
	C193.682693,123.060432 258.131592,122.973946 322.580078,123.083229 
	C325.380676,123.087975 328.179199,124.327339 330.978668,124.991585 
	C331.085724,125.411179 331.192810,125.830765 330.951050,126.632423 
	C330.194336,127.439728 329.786469,127.864960 329.378601,128.290192 
	C330.271790,128.859299 331.164978,129.428406 332.058167,129.997498 
	C332.312836,130.479645 332.567505,130.961792 332.447479,131.804871 
	C332.423035,135.355804 332.549255,138.597229 333.262299,141.703964 
	C333.471893,142.617249 335.344818,143.148758 336.455444,143.855240 
	C345.181122,165.795486 358.610870,184.157455 378.030457,198.738098 
	C378.830841,199.556564 379.367554,199.800598 379.904236,200.044632 
	C379.904236,200.044632 379.969177,200.005447 379.981201,200.415512 
	C381.808075,205.184326 382.523407,205.612213 385.827515,204.315414 
	C386.109253,204.316986 386.391022,204.318542 386.616699,204.967010 
	C386.601318,206.226196 386.487976,207.310303 386.705414,207.381287 
	C391.304291,208.882767 391.042511,212.549881 391.034424,216.332245 
	C390.973541,244.815384 390.957489,273.298828 391.046600,301.781830 
	C391.060547,306.244232 390.942383,310.383118 387.123779,313.577332 
	C386.340851,314.232239 386.465027,315.971558 386.171082,317.211029 
	C386.171112,317.211029 386.138184,317.102203 385.907837,317.219727 
	C385.501282,317.690094 385.325104,318.042938 385.148865,318.395782 
	C384.281708,319.513641 383.414551,320.631500 381.883026,321.883911 
	C380.505280,323.086060 379.791901,324.153717 379.078491,325.221344 
	C379.099518,325.546509 378.976837,325.802917 378.090820,326.020935 
	C373.812744,326.368469 370.152832,326.974701 366.496033,326.956635 
	C339.143860,326.821655 311.792358,326.541718 284.440155,326.449097 
	C283.628235,326.446350 282.811035,328.005859 281.996307,328.836975 
	C281.681793,329.045410 281.367279,329.253876 280.560822,329.837128 
	C279.712769,331.238342 279.047455,332.264191 279.045502,333.291260 
	C278.989563,362.363129 278.979156,391.435242 279.077972,420.506897 
	C279.081940,421.674133 280.223999,422.837494 280.835785,424.002655 
	C281.044373,424.317413 281.252991,424.632141 281.780945,425.408142 
	C284.081360,426.246307 286.059662,426.935547 288.043945,426.953094 
	C316.387451,427.203857 344.731689,427.387787 373.076080,427.444794 
	C374.050201,427.446747 375.027313,425.958038 376.003021,425.164124 
M310.303741,152.994476 
	C311.199738,152.208557 312.821625,151.465042 312.870453,150.629623 
	C313.128937,146.207230 312.991791,141.761734 312.991791,137.248901 
	C296.776733,137.248901 281.065765,137.248901 265.262390,137.248901 
	C265.262390,142.556427 265.262390,147.615585 265.262390,152.995941 
	C280.123566,152.995941 294.728485,152.995941 310.303741,152.994476 
M282.501282,169.004669 
	C276.747772,169.004669 270.994263,169.004669 265.313446,169.004669 
	C265.313446,174.661407 265.313446,179.720139 265.313446,184.699310 
	C281.333984,184.699310 297.043121,184.699310 312.686707,184.699310 
	C312.686707,179.339157 312.686707,174.280472 312.686707,169.004669 
	C302.752563,169.004669 293.126587,169.004669 282.501282,169.004669 
M285.500183,216.995331 
	C294.582062,216.995331 303.663940,216.995331 312.693604,216.995331 
	C312.693604,211.351410 312.693604,206.293579 312.693604,201.293457 
	C296.680542,201.293457 280.971558,201.293457 265.305878,201.293457 
	C265.305878,206.647873 265.305878,211.705780 265.305878,216.995331 
	C271.903748,216.995331 278.202087,216.995331 285.500183,216.995331 
M185.003616,417.482361 
	C185.003616,419.906586 185.003616,422.330780 185.003616,424.699615 
	C190.649628,424.699615 195.702789,424.699615 200.696716,424.699615 
	C200.696716,419.344635 200.696716,414.291412 200.696716,409.306091 
	C195.338989,409.306091 190.285828,409.306091 185.003616,409.306091 
	C185.003616,411.910736 185.003616,414.214233 185.003616,417.482361 
M249.086761,424.228088 
	C254.243469,424.583405 259.400177,424.938721 264.776001,425.309143 
	C264.776001,419.507965 264.776001,414.455505 264.776001,409.226929 
	C259.501465,409.226929 254.448959,409.226929 249.012634,409.226929 
	C249.012634,414.049896 249.012634,418.659058 249.086761,424.228088 
M231.273178,409.012817 
	C226.538422,409.012817 221.803650,409.012817 217.378235,409.012817 
	C217.378235,414.812134 217.378235,419.873260 217.378235,424.617737 
	C222.817932,424.617737 227.878601,424.617737 233.374527,424.617737 
	C232.973526,419.169830 232.602432,414.128174 231.273178,409.012817 
z"/>
<path fill="#FC826F" opacity="1.000000" stroke="none" 
	d="
M120.639099,349.363281 
	C94.608009,323.292664 68.631355,297.664368 43.109032,271.591339 
	C20.832111,248.833755 18.888649,213.257324 37.905487,187.825607 
	C54.741966,165.309738 85.834618,162.450836 106.307037,181.780563 
	C113.916954,188.965744 120.980331,196.729767 128.966843,204.920990 
	C135.625046,198.057373 142.062576,192.037567 147.792480,185.406326 
	C170.824493,158.751358 215.841537,163.124298 229.939194,206.998032 
	C233.847977,219.162689 233.948975,231.495941 230.717209,243.909317 
	C229.734406,247.684296 228.214066,249.194839 223.957947,249.139587 
	C202.799149,248.864960 181.634201,249.096634 160.473129,248.931229 
	C157.156570,248.905319 155.437866,249.901215 154.010483,252.889038 
	C149.144928,263.073761 143.978485,273.114716 138.503647,284.056396 
	C130.123108,259.023438 122.036789,234.869278 113.663368,209.857544 
	C106.859406,226.833282 100.197151,242.793030 94.136787,258.978149 
	C92.309677,263.857727 89.941116,265.725800 84.846886,265.105896 
	C81.110580,264.651276 77.274467,265.016815 73.252350,265.016815 
	C73.252350,270.389313 73.252350,275.327148 73.252350,280.947601 
	C82.459396,280.947601 91.715332,281.035431 100.963814,280.812988 
	C101.898300,280.790558 103.136505,279.041718 103.640305,277.844330 
	C106.466553,271.127258 109.110703,264.333588 112.310425,256.332184 
	C120.190681,279.886871 127.673492,302.253540 135.474518,325.571381 
	C137.594849,321.498566 139.368057,318.201050 141.043976,314.854828 
	C148.795334,299.378143 156.466812,283.860962 164.339249,268.446289 
	C165.086899,266.982330 167.019180,265.160278 168.423477,265.141418 
	C185.383499,264.913452 202.347687,264.993744 219.310776,264.993744 
	C219.640305,265.413574 219.969818,265.833435 220.299347,266.253265 
	C190.055679,296.567139 159.812012,326.881012 129.147095,357.617096 
	C126.284775,354.841949 123.587845,352.227173 120.639099,349.363281 
z"/>
<path fill="#E6E9EF" opacity="1.000000" stroke="none" 
	d="
M424.995880,319.000000 
	C424.995880,375.800537 424.995880,432.101105 424.995880,488.698853 
	C313.057648,488.698853 201.338608,488.698853 89.310104,488.698853 
	C89.310104,439.737701 89.310104,390.677307 89.310104,339.778229 
	C94.826424,345.626190 99.653725,350.485596 104.107201,355.666351 
	C105.085815,356.804779 104.962318,359.084991 104.964401,360.839844 
	C105.008446,397.992828 104.997749,435.145844 104.997749,472.651428 
	C206.160385,472.651428 307.216034,472.651428 408.755371,472.651428 
	C408.755371,387.041931 408.755371,301.159973 408.755371,216.107285 
	C414.340942,216.107285 419.445282,216.107285 424.995880,216.107285 
	C424.995880,249.648666 424.995880,284.074341 424.995880,319.000000 
z"/>
<path fill="#A9B1BB" opacity="1.000000" stroke="none" 
	d="
M360.497742,156.451202 
	C349.728088,138.596924 344.775726,119.567039 344.969910,99.093102 
	C345.127655,82.461433 345.001953,65.827072 345.001953,50.124798 
	C358.330933,47.186035 371.346588,45.165897 383.792297,41.307457 
	C394.017212,38.137516 403.531921,32.706181 413.444244,28.471012 
	C415.189667,27.725248 417.855225,27.044479 419.231445,27.836245 
	C440.200867,39.900440 462.714874,46.786674 486.791443,48.711014 
	C487.423859,48.761559 488.044220,48.962479 489.287323,49.222218 
	C487.444427,76.226036 492.686584,103.597702 484.925629,130.180496 
	C475.140564,163.696198 453.480316,186.656326 420.870758,199.105072 
	C418.514893,200.004410 415.224548,199.903854 412.827545,199.021561 
	C390.688080,190.872589 373.325134,176.705032 360.497742,156.451202 
M392.999359,80.485191 
	C392.999359,83.248657 392.999359,86.012115 392.999359,89.001083 
	C387.212067,89.001083 382.066895,88.896774 376.927490,89.024109 
	C367.904724,89.247658 361.262634,95.883095 361.032074,104.907600 
	C360.900238,110.066223 360.947327,115.231636 361.015198,120.392662 
	C361.145386,130.289078 367.773499,136.860962 377.743591,136.989380 
	C382.692017,137.053116 387.641968,137.000458 393.008026,137.000458 
	C393.008026,142.582870 392.925293,147.705841 393.026123,152.825195 
	C393.208954,162.107742 399.873322,168.775574 409.179474,168.979355 
	C414.172546,169.088699 419.170502,169.048355 424.165253,168.989914 
	C434.402832,168.870132 440.906860,162.290253 440.993958,151.986740 
	C441.035553,147.064453 441.001099,142.141525 441.001099,136.989120 
	C446.806580,136.989120 451.954285,137.102020 457.095276,136.964233 
	C466.130951,136.722015 472.756744,130.074112 472.976959,121.055695 
	C473.098846,116.063202 473.033630,111.065071 472.994232,106.069939 
	C472.911407,95.565643 466.351593,89.084236 455.729614,89.004761 
	C450.949310,88.968994 446.168518,88.998711 440.994476,88.998711 
	C440.994476,83.226845 441.123535,77.932991 440.965088,72.647751 
	C440.709625,64.126442 434.247498,57.422642 425.801208,57.066944 
	C419.983551,56.821941 414.141022,56.842995 408.321045,57.056221 
	C399.855865,57.366364 393.403656,64.002472 393.031464,72.516182 
	C392.929749,74.843163 393.005096,77.177879 392.999359,80.485191 
z"/>
<path fill="#E6E9EF" opacity="1.000000" stroke="none" 
	d="
M104.996399,111.089767 
	C104.996368,127.736603 104.996368,143.895187 104.996368,160.410172 
	C99.561142,158.338730 94.404259,156.373352 89.143188,154.368286 
	C89.143188,132.785858 89.143188,111.162453 89.143188,89.271393 
	C169.011703,89.271393 248.740448,89.271393 328.744537,89.271393 
	C328.744537,94.353127 328.744537,99.422211 328.744537,104.893173 
	C254.322495,104.893173 179.919632,104.893173 104.996437,104.893173 
	C104.996437,107.054604 104.996437,108.828064 104.996399,111.089767 
z"/>
<path fill="#F9D670" opacity="1.000000" stroke="none" 
	d="
M334.004700,392.989288 
	C334.186798,393.268341 334.368896,393.547394 334.933289,394.224365 
	C336.863922,396.385651 338.258301,397.227325 338.975281,394.011322 
	C340.722412,390.077026 343.989899,387.619415 348.059662,385.111816 
	C349.118469,384.228302 349.536194,383.551361 349.953949,382.874420 
	C349.927246,382.524658 350.061951,382.255798 350.851807,381.903625 
	C351.520569,381.413666 351.695587,381.087921 351.870605,380.762146 
	C351.870605,380.762146 351.893219,380.899261 352.104919,380.804260 
	C352.478271,380.372620 352.639954,380.036011 352.801636,379.699371 
	C352.801605,379.699371 352.819763,379.828186 353.136047,379.843933 
	C354.634277,378.225861 355.816284,376.592010 356.998291,374.958130 
	C356.976501,374.594452 357.113037,374.305542 358.051605,374.119019 
	C359.132233,375.459137 359.929657,376.766754 359.947418,378.084900 
	C360.061798,386.581787 359.854828,395.084930 360.077332,403.577515 
	C360.171051,407.154358 358.876160,408.096313 355.464355,408.069672 
	C337.968628,407.932831 320.470001,407.893951 302.975464,408.093140 
	C299.012909,408.138275 297.862427,406.968475 297.907471,403.017944 
	C298.105072,385.690063 298.095337,368.357544 297.913330,351.029297 
	C297.872742,347.164398 298.878876,345.850250 302.928223,345.901215 
	C320.089020,346.117279 337.254333,345.955841 354.417328,346.050049 
	C356.125732,346.059418 357.829712,346.867950 359.535767,347.305542 
	C359.535767,347.305542 359.440216,347.231812 359.126770,347.301147 
	C358.541382,347.914703 358.269470,348.458954 357.997559,349.003235 
	C357.997559,349.003235 358.000000,349.000000 357.620117,349.004272 
	C356.525574,350.051178 355.810883,351.093781 355.096222,352.136414 
	C355.085480,352.468872 354.946686,352.734436 354.181702,353.101685 
	C353.510315,353.608887 353.337097,353.947449 353.163879,354.286041 
	C353.163910,354.286041 353.168030,354.160370 352.841858,354.154602 
	C351.565735,355.583618 350.615784,357.018433 349.665833,358.453247 
	C349.665833,358.453247 349.550140,358.525177 349.155853,358.432343 
	C348.216003,359.281158 347.670441,360.222809 347.124878,361.164429 
	C347.124878,361.164429 347.053741,361.053894 346.752136,361.073914 
	C344.322144,363.762299 342.193787,366.430603 340.065460,369.098938 
	C340.065460,369.098938 340.023376,369.023499 339.813721,369.136108 
	C339.435059,369.556610 339.266052,369.864441 339.097076,370.172302 
	C339.097076,370.172302 339.065216,370.078552 338.707916,370.053314 
	C336.507660,369.735168 334.664734,369.442261 332.821777,369.149353 
	C332.821777,369.149323 332.926392,369.083008 332.831116,368.876587 
	C332.437531,368.482605 332.139252,368.295074 331.840942,368.107544 
	C331.840942,368.107544 331.936920,368.065887 331.831970,367.853333 
	C331.421692,367.457581 331.116302,367.274414 330.810944,367.091248 
	C326.877472,363.357574 322.944000,359.623901 318.820770,355.710114 
	C315.318176,359.502258 311.900055,363.202942 307.513702,367.951904 
	C311.750153,371.847900 316.570892,376.281219 321.758057,381.109314 
	C322.419769,381.662872 322.714996,381.821716 323.010223,381.980530 
	C323.010223,381.980530 322.998932,382.000000 323.063660,382.250854 
	C323.417328,382.671021 323.706268,382.840332 323.995209,383.009644 
	C323.995209,383.009644 324.000000,383.000000 324.058044,383.257904 
	C324.409241,383.680145 324.702423,383.844482 324.995575,384.008850 
	C324.995575,384.008850 325.000000,384.000000 325.062836,384.253662 
	C325.417694,384.670258 325.709717,384.833130 326.001770,384.996002 
	C327.142059,386.240051 328.282349,387.484100 329.776306,389.113220 
	C330.425751,389.652161 330.721527,389.806000 331.017273,389.959839 
	C331.017273,389.959839 330.997559,389.999664 331.067261,390.247314 
	C331.422455,390.667053 331.707977,390.839172 331.993469,391.011292 
	C331.993469,391.011292 332.000000,391.000000 332.058838,391.257599 
	C332.410706,391.678040 332.703735,391.840881 332.996765,392.003723 
	C332.996765,392.003723 333.000000,392.000000 333.068481,392.250061 
	C333.426178,392.663177 333.715454,392.826233 334.004700,392.989288 
z"/>
<path fill="#B3DA7F" opacity="1.000000" stroke="none" 
	d="
M217.214233,63.027439 
	C217.967987,49.096615 224.414490,38.517941 236.819275,30.976322 
	C240.097870,30.271320 242.659195,29.697489 245.149582,28.901606 
	C251.456696,26.885977 257.633575,24.950874 264.387146,27.537874 
	C268.473083,29.103016 272.904755,29.765522 277.181091,30.833576 
	C277.181091,30.833574 277.073883,30.912704 277.203278,31.116535 
	C277.682831,31.386494 278.033020,31.452623 278.383179,31.518755 
	C278.383179,31.518755 278.383026,31.930632 278.399780,32.070854 
	C279.410675,32.689037 280.404816,33.166996 281.398926,33.644955 
	C281.398926,33.644955 281.307770,33.560749 281.261292,33.940914 
	C282.142059,38.064823 284.065582,40.686516 288.346375,40.653511 
	C288.346375,40.653511 288.326721,40.906963 288.322205,41.068420 
	C288.611542,41.448013 288.905396,41.666149 289.199249,41.884285 
	C289.199249,41.884277 289.111115,41.935318 289.110046,42.225368 
	C289.555969,42.911572 290.002930,43.307724 290.449890,43.703880 
	C290.449890,43.703880 290.298889,43.795013 290.313232,44.005127 
	C290.626404,44.447292 290.925171,44.679344 291.223969,44.911400 
	C291.461212,45.152645 291.698425,45.393890 291.925415,46.232109 
	C292.274811,48.879200 292.411957,50.999943 293.036011,52.966152 
	C294.874542,58.759014 296.896912,64.491241 294.201996,70.619583 
	C290.588074,70.619583 287.036041,70.619583 283.230774,70.619583 
	C282.795685,66.517410 282.683105,62.700123 281.875916,59.035854 
	C281.485992,57.265778 279.790131,55.783390 278.685547,54.170746 
	C278.685547,54.170746 278.796967,54.138538 278.867126,53.854225 
	C280.225220,49.903378 278.057129,49.111176 275.109406,48.967415 
	C272.630707,47.042309 270.152039,45.117207 267.279907,42.690311 
	C266.237457,41.517437 265.603455,40.282711 264.937042,40.264950 
	C259.866333,40.129791 254.512482,39.251041 249.803879,40.579025 
	C246.192322,41.597610 240.421631,41.642277 239.973312,47.775009 
	C238.171432,50.693798 236.369553,53.612587 233.919128,56.840744 
	C232.269516,61.623425 231.268494,66.096748 230.244873,70.670982 
	C226.618805,70.670982 223.083984,70.670982 219.968338,70.670982 
	C218.946579,67.835251 218.080399,65.431343 217.214233,63.027439 
z"/>
<path fill="#E8D1BD" opacity="1.000000" stroke="none" 
	d="
M127.128700,378.585022 
	C123.637550,378.362854 122.562935,380.571381 122.577087,383.560791 
	C122.682678,405.859222 122.948059,428.157562 122.909058,450.455444 
	C122.902092,454.435913 124.423004,455.065887 127.912628,455.062683 
	C214.006058,454.983948 300.099609,454.969604 386.192902,455.095215 
	C390.427704,455.101410 391.080688,453.515778 391.065247,449.850128 
	C390.947998,422.040924 390.915161,394.230560 391.061829,366.421631 
	C391.098389,359.485535 391.885345,352.553436 392.581299,345.324280 
	C392.835175,382.145966 392.835175,419.262878 392.835175,456.691101 
	C302.430115,456.691101 212.074799,456.691101 121.351898,456.691101 
	C121.351898,429.079163 121.351898,401.273285 121.351898,371.850555 
	C123.777138,374.616638 125.379852,376.444580 127.128700,378.585022 
z"/>
<path fill="#E8D1BD" opacity="1.000000" stroke="none" 
	d="
M331.018311,124.562546 
	C328.179199,124.327339 325.380676,123.087975 322.580078,123.083229 
	C258.131592,122.973946 193.682693,123.060432 129.234512,122.880493 
	C124.171280,122.866364 122.625801,124.106995 122.876472,129.227097 
	C123.315681,138.198441 123.048538,147.207306 122.950806,156.199097 
	C122.934151,157.732224 122.286842,159.258469 121.547752,160.895584 
	C121.164612,147.869339 121.164612,134.735413 121.164612,121.246826 
	C122.644745,121.162117 124.079643,121.008430 125.514580,121.008171 
	C192.312286,120.996384 259.109985,120.991524 325.907684,121.026031 
	C328.125488,121.027176 331.284454,119.896469 331.018311,124.562546 
z"/>
<path fill="#E5CFBB" opacity="1.000000" stroke="none" 
	d="
M386.478027,317.067291 
	C386.465027,315.971558 386.340851,314.232239 387.123779,313.577332 
	C390.942383,310.383118 391.060547,306.244232 391.046600,301.781830 
	C390.957489,273.298828 390.973541,244.815384 391.034424,216.332245 
	C391.042511,212.549881 391.304291,208.882767 386.705414,207.381287 
	C386.487976,207.310303 386.601318,206.226196 386.913574,205.267883 
	C391.672150,205.819565 393.153229,208.307449 393.117920,212.957214 
	C392.895569,242.219467 392.794434,271.486938 393.165436,300.746155 
	C393.249786,307.399719 391.975250,312.730377 386.478027,317.067291 
z"/>
<path fill="#F9F9F9" opacity="1.000000" stroke="none" 
	d="
M263.639343,60.671947 
	C264.396820,64.841110 264.920654,68.681778 265.483337,72.807465 
	C259.562927,72.807465 254.498123,72.807465 249.020340,72.807465 
	C249.415100,67.440468 247.099365,61.536247 253.274155,58.048927 
	C257.190063,55.837345 260.605988,57.021488 263.639343,60.671947 
z"/>
<path fill="#EFD689" opacity="1.000000" stroke="none" 
	d="
M359.829834,347.090302 
	C357.829712,346.867950 356.125732,346.059418 354.417328,346.050049 
	C337.254333,345.955841 320.089020,346.117279 302.928223,345.901215 
	C298.878876,345.850250 297.872742,347.164398 297.913330,351.029297 
	C298.095337,368.357544 298.105072,385.690063 297.907471,403.017944 
	C297.862427,406.968475 299.012909,408.138275 302.975464,408.093140 
	C320.470001,407.893951 337.968628,407.932831 355.464355,408.069672 
	C358.876160,408.096313 360.171051,407.154358 360.077332,403.577515 
	C359.854828,395.084930 360.061798,386.581787 359.947418,378.084900 
	C359.929657,376.766754 359.132233,375.459137 358.290833,374.051880 
	C358.672363,372.999176 359.458374,372.041229 360.752991,370.463440 
	C360.752991,383.699860 360.752991,396.084167 360.752991,408.739685 
	C339.632996,408.739685 318.580841,408.739685 297.259216,408.739685 
	C297.259216,387.630707 297.259216,366.578522 297.259216,344.993622 
	C302.243774,344.993622 307.183350,344.992798 312.122925,344.993805 
	C327.275208,344.996857 342.427856,344.967285 357.578430,345.129700 
	C358.166962,345.135986 361.650421,343.022308 359.829834,347.090302 
z"/>
<path fill="#DEDDE5" opacity="1.000000" stroke="none" 
	d="
M331.963531,250.861435 
	C337.743713,247.942886 342.262115,249.178665 344.325439,253.928635 
	C346.080261,257.968475 344.273804,262.414825 340.121918,264.274963 
	C335.958160,266.140411 330.593994,264.216278 329.726685,259.703674 
	C329.217133,257.052643 330.930969,253.974243 331.963531,250.861435 
z"/>
<path fill="#E8D1BD" opacity="1.000000" stroke="none" 
	d="
M375.539246,425.089722 
	C375.027313,425.958038 374.050201,427.446747 373.076080,427.444794 
	C344.731689,427.387787 316.387451,427.203857 288.043945,426.953094 
	C286.059662,426.935547 284.081360,426.246307 282.048645,425.516876 
	C313.023163,425.114685 344.049286,425.065033 375.539246,425.089722 
z"/>
<path fill="#E7D1BC" opacity="1.000000" stroke="none" 
	d="
M282.460083,328.911591 
	C282.811035,328.005859 283.628235,326.446350 284.440155,326.449097 
	C311.792358,326.541718 339.143860,326.821655 366.496033,326.956635 
	C370.152832,326.974701 373.812744,326.368469 377.876343,326.075684 
	C376.234985,327.069977 374.193420,328.872589 372.141327,328.884613 
	C342.403015,329.059418 312.663269,328.994080 282.460083,328.911591 
z"/>
<path fill="#E8D1BD" opacity="1.000000" stroke="none" 
	d="
M280.910095,423.538879 
	C280.223999,422.837494 279.081940,421.674133 279.077972,420.506897 
	C278.979156,391.435242 278.989563,362.363129 279.045502,333.291260 
	C279.047455,332.264191 279.712769,331.238342 280.452332,330.104767 
	C280.885315,361.023438 280.934875,392.049286 280.910095,423.538879 
z"/>
<path fill="#E7D1BC" opacity="1.000000" stroke="none" 
	d="
M315.149139,267.501221 
	C310.107391,264.463104 304.686707,266.922638 299.376892,266.957764 
	C282.627869,267.068665 265.876617,267.099945 249.128601,266.928223 
	C244.897919,266.884827 240.972397,267.149658 237.182739,269.911804 
	C237.663651,266.157471 239.862045,264.870178 243.845459,264.905090 
	C266.046783,265.099731 288.250916,264.958069 310.453186,265.089447 
	C312.007233,265.098663 313.553741,266.383179 315.149139,267.501221 
z"/>
<path fill="#E8D1BD" opacity="1.000000" stroke="none" 
	d="
M379.677582,349.192780 
	C379.673706,372.002625 379.362213,394.985504 378.954346,417.966644 
	C378.919128,419.950165 378.245697,421.922363 377.516113,423.951569 
	C377.108734,400.856445 377.003448,377.709381 377.100769,354.563171 
	C377.108063,352.827423 378.562653,351.097778 379.677582,349.192780 
z"/>
<path fill="#B7D190" opacity="1.000000" stroke="none" 
	d="
M278.759155,54.560326 
	C279.790131,55.783390 281.485992,57.265778 281.875916,59.035854 
	C282.683105,62.700123 282.795685,66.517410 283.230774,70.619583 
	C287.036041,70.619583 290.588074,70.619583 294.201996,70.619583 
	C296.896912,64.491241 294.874542,58.759014 293.036011,52.966152 
	C292.411957,50.999943 292.274811,48.879200 291.933655,46.498123 
	C297.010132,54.283138 297.340668,63.263775 296.882690,72.713654 
	C291.714600,72.713654 286.669189,72.713654 281.883209,72.713654 
	C280.867401,66.798225 279.850098,60.874062 278.759155,54.560326 
z"/>
<path fill="#ABC987" opacity="1.000000" stroke="none" 
	d="
M276.984253,30.540268 
	C272.904755,29.765522 268.473083,29.103016 264.387146,27.537874 
	C257.633575,24.950874 251.456696,26.885977 245.149582,28.901606 
	C242.659195,29.697489 240.097870,30.271320 237.150375,30.910809 
	C249.959320,22.734137 263.322968,23.278591 276.984253,30.540268 
z"/>
<path fill="#BAD494" opacity="1.000000" stroke="none" 
	d="
M217.124176,63.478306 
	C218.080399,65.431343 218.946579,67.835251 219.968338,70.670982 
	C223.083984,70.670982 226.618805,70.670982 230.244873,70.670982 
	C231.268494,66.096748 232.269516,61.623425 233.663208,57.073883 
	C233.550430,62.188126 233.044983,67.378593 232.518005,72.790161 
	C227.552399,72.790161 222.524292,72.790161 217.034134,72.790161 
	C217.034134,69.756111 217.034134,66.842644 217.124176,63.478306 
z"/>
<path fill="#B5D08F" opacity="1.000000" stroke="none" 
	d="
M240.284927,47.662148 
	C240.421631,41.642277 246.192322,41.597610 249.803879,40.579025 
	C254.512482,39.251041 259.866333,40.129791 264.937042,40.264950 
	C265.603455,40.282711 266.237457,41.517437 266.933350,42.579857 
	C257.327545,39.552021 248.426300,40.463108 240.284927,47.662148 
z"/>
<path fill="#E8D1BD" opacity="1.000000" stroke="none" 
	d="
M392.917725,341.588013 
	C390.373535,342.636871 387.903503,343.267853 385.086487,343.839600 
	C387.154480,340.871033 389.569458,337.961731 392.991943,333.838684 
	C392.991943,337.167938 392.991943,339.169037 392.917725,341.588013 
z"/>
<path fill="#E8D1BD" opacity="1.000000" stroke="none" 
	d="
M336.358459,143.480103 
	C335.344818,143.148758 333.471893,142.617249 333.262299,141.703964 
	C332.549255,138.597229 332.423035,135.355804 332.411255,132.081573 
	C333.920319,135.699890 335.090912,139.402435 336.358459,143.480103 
z"/>
<path fill="#ABC987" opacity="1.000000" stroke="none" 
	d="
M288.243469,40.337883 
	C284.065582,40.686516 282.142059,38.064823 281.320190,33.960388 
	C283.663940,35.740547 285.902252,37.881401 288.243469,40.337883 
z"/>
<path fill="#E8D1BD" opacity="1.000000" stroke="none" 
	d="
M121.090210,167.411087 
	C124.882401,168.649689 124.299301,171.488861 123.064682,174.819183 
	C122.278305,172.725266 121.647163,170.276764 121.090210,167.411087 
z"/>
<path fill="#E7CD83" opacity="1.000000" stroke="none" 
	d="
M340.368530,368.956451 
	C342.193787,366.430603 344.322144,363.762299 346.809509,361.106018 
	C345.002838,363.683350 342.837219,366.248657 340.368530,368.956451 
z"/>
<path fill="#E5CFBB" opacity="1.000000" stroke="none" 
	d="
M385.696594,204.138123 
	C382.523407,205.612213 381.808075,205.184326 379.977570,200.453247 
	C381.829865,201.374222 383.697754,202.667511 385.696594,204.138123 
z"/>
<path fill="#E7CD83" opacity="1.000000" stroke="none" 
	d="
M332.960876,369.454712 
	C334.664734,369.442261 336.507660,369.735168 338.754669,370.069550 
	C338.413330,371.106293 337.667938,372.101593 336.181763,374.086029 
	C334.953796,372.362305 334.026855,371.061157 332.960876,369.454712 
z"/>
<path fill="#E8D1BD" opacity="1.000000" stroke="none" 
	d="
M384.482117,343.884033 
	C385.292694,346.903381 383.898834,348.608368 380.397217,349.002563 
	C381.408295,347.348297 382.797363,345.686401 384.482117,343.884033 
z"/>
<path fill="#B7D190" opacity="1.000000" stroke="none" 
	d="
M275.223633,49.270126 
	C278.057129,49.111176 280.225220,49.903378 278.845154,53.907887 
	C277.614624,52.688187 276.476257,51.130516 275.223633,49.270126 
z"/>
<path fill="#EFD689" opacity="1.000000" stroke="none" 
	d="
M356.691437,375.089783 
	C355.816284,376.592010 354.634277,378.225861 353.077698,379.815186 
	C353.930267,378.254242 355.157410,376.737823 356.691437,375.089783 
z"/>
<path fill="#E7CD83" opacity="1.000000" stroke="none" 
	d="
M349.918152,358.281616 
	C350.615784,357.018433 351.565735,355.583618 352.894165,354.189423 
	C352.238617,355.523346 351.204529,356.816681 349.918152,358.281616 
z"/>
<path fill="#E8D1BD" opacity="1.000000" stroke="none" 
	d="
M332.097168,129.664001 
	C331.164978,129.428406 330.271790,128.859299 329.378601,128.290192 
	C329.786469,127.864960 330.194336,127.439728 330.934937,126.963013 
	C331.557190,127.717850 331.846680,128.524170 332.097168,129.664001 
z"/>
<path fill="#E7D1BC" opacity="1.000000" stroke="none" 
	d="
M318.841400,272.710510 
	C317.959137,271.923553 316.982574,270.834106 316.009644,269.355591 
	C316.924561,270.113708 317.835815,271.260895 318.841400,272.710510 
z"/>
<path fill="#211406" opacity="1.000000" stroke="none" 
	d="
M338.581665,394.012390 
	C338.258301,397.227325 336.863922,396.385651 335.177582,394.301758 
	C336.089020,393.991974 337.138550,394.002686 338.581665,394.012390 
z"/>
<path fill="#E7D1BC" opacity="1.000000" stroke="none" 
	d="
M379.369019,325.088776 
	C379.791901,324.153717 380.505280,323.086060 381.601990,322.009094 
	C381.209991,322.985229 380.434753,323.970703 379.369019,325.088776 
z"/>
<path fill="#EFD689" opacity="1.000000" stroke="none" 
	d="
M355.386719,352.020630 
	C355.810883,351.093781 356.525574,350.051178 357.621460,349.002960 
	C357.227539,349.966522 356.452393,350.935699 355.386719,352.020630 
z"/>
<path fill="#E7CD83" opacity="1.000000" stroke="none" 
	d="
M347.401001,361.054199 
	C347.670441,360.222809 348.216003,359.281158 349.125854,358.493469 
	C348.885773,359.412964 348.281464,360.178467 347.401001,361.054199 
z"/>
<path fill="#ABC987" opacity="1.000000" stroke="none" 
	d="
M281.240906,33.374886 
	C280.404816,33.166996 279.410675,32.689037 278.414856,31.865143 
	C279.303070,32.047745 280.192963,32.576279 281.240906,33.374886 
z"/>
<path fill="#EFD689" opacity="1.000000" stroke="none" 
	d="
M349.684326,382.997528 
	C349.536194,383.551361 349.118469,384.228302 348.375183,384.954102 
	C348.504669,384.375549 348.959717,383.748077 349.684326,382.997528 
z"/>
<path fill="#B7D190" opacity="1.000000" stroke="none" 
	d="
M290.377960,43.411964 
	C290.002930,43.307724 289.555969,42.911572 289.117584,42.174995 
	C289.519440,42.263065 289.912750,42.691559 290.377960,43.411964 
z"/>
<path fill="#E5CFBB" opacity="1.000000" stroke="none" 
	d="
M379.757477,199.791504 
	C379.367554,199.800598 378.830841,199.556564 378.189575,199.026260 
	C378.593536,199.006119 379.102142,199.272263 379.757477,199.791504 
z"/>
<path fill="#EFD689" opacity="1.000000" stroke="none" 
	d="
M358.261841,348.889191 
	C358.269470,348.458954 358.541382,347.914703 359.137329,347.360535 
	C359.149567,347.825470 358.837830,348.300293 358.261841,348.889191 
z"/>
<path fill="#ABC987" opacity="1.000000" stroke="none" 
	d="
M278.234070,31.310736 
	C278.033020,31.452623 277.682831,31.386494 277.227997,31.054663 
	C277.443878,30.893545 277.764404,30.998131 278.234070,31.310736 
z"/>
<path fill="#211406" opacity="1.000000" stroke="none" 
	d="
M333.916321,392.754395 
	C333.715454,392.826233 333.426178,392.663177 333.066620,392.251740 
	C333.273529,392.175385 333.550751,392.347443 333.916321,392.754395 
z"/>
<path fill="#211406" opacity="1.000000" stroke="none" 
	d="
M332.907562,391.768524 
	C332.703735,391.840881 332.410706,391.678040 332.053223,391.260864 
	C332.265289,391.182159 332.541840,391.357727 332.907562,391.768524 
z"/>
<path fill="#211406" opacity="1.000000" stroke="none" 
	d="
M331.913147,390.776367 
	C331.707977,390.839172 331.422455,390.667053 331.087830,390.239075 
	C331.383118,390.055969 331.647797,390.242035 331.913147,390.776367 
z"/>
<path fill="#211406" opacity="1.000000" stroke="none" 
	d="
M330.924927,389.729980 
	C330.721527,389.806000 330.425751,389.652161 330.066498,389.248352 
	C330.350037,389.049011 330.626556,389.216248 330.924927,389.729980 
z"/>
<path fill="#211406" opacity="1.000000" stroke="none" 
	d="
M325.912231,384.760803 
	C325.709717,384.833130 325.417694,384.670258 325.058289,384.255951 
	C325.268158,384.178223 325.545441,384.351929 325.912231,384.760803 
z"/>
<path fill="#EFD689" opacity="1.000000" stroke="none" 
	d="
M351.603943,380.862000 
	C351.695587,381.087921 351.520569,381.413666 351.079102,381.842041 
	C350.987518,381.617065 351.162415,381.289459 351.603943,380.862000 
z"/>
<path fill="#211406" opacity="1.000000" stroke="none" 
	d="
M324.907715,383.772461 
	C324.702423,383.844482 324.409241,383.680145 324.053223,383.260315 
	C324.266846,383.181885 324.543335,383.358978 324.907715,383.772461 
z"/>
<path fill="#211406" opacity="1.000000" stroke="none" 
	d="
M323.911530,382.774231 
	C323.706268,382.840332 323.417328,382.671021 323.073730,382.245850 
	C323.366211,382.058685 323.635803,382.241608 323.911530,382.774231 
z"/>
<path fill="#211406" opacity="1.000000" stroke="none" 
	d="
M322.918213,381.747864 
	C322.714996,381.821716 322.419769,381.662872 322.058502,381.253265 
	C322.270386,381.173370 322.548279,381.344299 322.918213,381.747864 
z"/>
<path fill="#EFD689" opacity="1.000000" stroke="none" 
	d="
M352.538391,379.799133 
	C352.639954,380.036011 352.478271,380.372620 352.036438,380.792572 
	C351.929230,380.550232 352.102203,380.224548 352.538391,379.799133 
z"/>
<path fill="#E5CFBB" opacity="1.000000" stroke="none" 
	d="
M385.420532,318.274536 
	C385.325104,318.042938 385.501282,317.690094 385.963745,317.230011 
	C386.064056,317.466278 385.878113,317.809784 385.420532,318.274536 
z"/>
<path fill="#B7D190" opacity="1.000000" stroke="none" 
	d="
M291.157776,44.639587 
	C290.925171,44.679344 290.626404,44.447292 290.317688,43.917061 
	C290.569061,43.868515 290.830322,44.118145 291.157776,44.639587 
z"/>
<path fill="#ABC987" opacity="1.000000" stroke="none" 
	d="
M289.143372,41.617138 
	C288.905396,41.666149 288.611542,41.448013 288.308838,40.942017 
	C288.562500,40.886105 288.825012,41.118046 289.143372,41.617138 
z"/>
<path fill="#E7CD83" opacity="1.000000" stroke="none" 
	d="
M339.351501,370.075012 
	C339.266052,369.864441 339.435059,369.556610 339.855316,369.147675 
	C339.939697,369.356964 339.772797,369.667328 339.351501,370.075012 
z"/>
<path fill="#E7CD83" opacity="1.000000" stroke="none" 
	d="
M331.913635,368.370667 
	C332.139252,368.295074 332.437531,368.482605 332.807861,368.933960 
	C332.582001,369.009796 332.284149,368.821808 331.913635,368.370667 
z"/>
<path fill="#E7CD83" opacity="1.000000" stroke="none" 
	d="
M330.895325,367.353882 
	C331.116302,367.274414 331.421692,367.457581 331.812744,367.901978 
	C331.592224,367.980957 331.285980,367.798737 330.895325,367.353882 
z"/>
<path fill="#EFD689" opacity="1.000000" stroke="none" 
	d="
M353.439453,354.186890 
	C353.337097,353.947449 353.510315,353.608887 353.961365,353.171692 
	C354.064514,353.411285 353.889771,353.749481 353.439453,354.186890 
z"/>
<path fill="#020001" opacity="1.000000" stroke="none" 
	d="
M309.818573,152.995209 
	C294.728485,152.995941 280.123566,152.995941 265.262390,152.995941 
	C265.262390,147.615585 265.262390,142.556427 265.262390,137.248901 
	C281.065765,137.248901 296.776733,137.248901 312.991791,137.248901 
	C312.991791,141.761734 313.128937,146.207230 312.870453,150.629623 
	C312.821625,151.465042 311.199738,152.208557 309.818573,152.995209 
z"/>
<path fill="#020001" opacity="1.000000" stroke="none" 
	d="
M283.000977,169.004669 
	C293.126587,169.004669 302.752563,169.004669 312.686707,169.004669 
	C312.686707,174.280472 312.686707,179.339157 312.686707,184.699310 
	C297.043121,184.699310 281.333984,184.699310 265.313446,184.699310 
	C265.313446,179.720139 265.313446,174.661407 265.313446,169.004669 
	C270.994263,169.004669 276.747772,169.004669 283.000977,169.004669 
z"/>
<path fill="#020001" opacity="1.000000" stroke="none" 
	d="
M285.000305,216.995331 
	C278.202087,216.995331 271.903748,216.995331 265.305878,216.995331 
	C265.305878,211.705780 265.305878,206.647873 265.305878,201.293457 
	C280.971558,201.293457 296.680542,201.293457 312.693604,201.293457 
	C312.693604,206.293579 312.693604,211.351410 312.693604,216.995331 
	C303.663940,216.995331 294.582062,216.995331 285.000305,216.995331 
z"/>
<path fill="#020101" opacity="1.000000" stroke="none" 
	d="
M185.003616,417.000031 
	C185.003616,414.214233 185.003616,411.910736 185.003616,409.306091 
	C190.285828,409.306091 195.338989,409.306091 200.696716,409.306091 
	C200.696716,414.291412 200.696716,419.344635 200.696716,424.699615 
	C195.702789,424.699615 190.649628,424.699615 185.003616,424.699615 
	C185.003616,422.330780 185.003616,419.906586 185.003616,417.000031 
z"/>
<path fill="#020101" opacity="1.000000" stroke="none" 
	d="
M249.049698,423.748138 
	C249.012634,418.659058 249.012634,414.049896 249.012634,409.226929 
	C254.448959,409.226929 259.501465,409.226929 264.776001,409.226929 
	C264.776001,414.455505 264.776001,419.507965 264.776001,425.309143 
	C259.400177,424.938721 254.243469,424.583405 249.049698,423.748138 
z"/>
<path fill="#020101" opacity="1.000000" stroke="none" 
	d="
M231.752258,409.049683 
	C232.602432,414.128174 232.973526,419.169830 233.374527,424.617737 
	C227.878601,424.617737 222.817932,424.617737 217.378235,424.617737 
	C217.378235,419.873260 217.378235,414.812134 217.378235,409.012817 
	C221.803650,409.012817 226.538422,409.012817 231.752258,409.049683 
z"/>
<path fill="#020203" opacity="1.000000" stroke="none" 
	d="
M392.999268,79.997116 
	C393.005096,77.177879 392.929749,74.843163 393.031464,72.516182 
	C393.403656,64.002472 399.855865,57.366364 408.321045,57.056221 
	C414.141022,56.842995 419.983551,56.821941 425.801208,57.066944 
	C434.247498,57.422642 440.709625,64.126442 440.965088,72.647751 
	C441.123535,77.932991 440.994476,83.226845 440.994476,88.998711 
	C446.168518,88.998711 450.949310,88.968994 455.729614,89.004761 
	C466.351593,89.084236 472.911407,95.565643 472.994232,106.069939 
	C473.033630,111.065071 473.098846,116.063202 472.976959,121.055695 
	C472.756744,130.074112 466.130951,136.722015 457.095276,136.964233 
	C451.954285,137.102020 446.806580,136.989120 441.001099,136.989120 
	C441.001099,142.141525 441.035553,147.064453 440.993958,151.986740 
	C440.906860,162.290253 434.402832,168.870132 424.165253,168.989914 
	C419.170502,169.048355 414.172546,169.088699 409.179474,168.979355 
	C399.873322,168.775574 393.208954,162.107742 393.026123,152.825195 
	C392.925293,147.705841 393.008026,142.582870 393.008026,137.000458 
	C387.641968,137.000458 382.692017,137.053116 377.743591,136.989380 
	C367.773499,136.860962 361.145386,130.289078 361.015198,120.392662 
	C360.947327,115.231636 360.900238,110.066223 361.032074,104.907600 
	C361.262634,95.883095 367.904724,89.247658 376.927490,89.024109 
	C382.066895,88.896774 387.212067,89.001083 392.999359,89.001083 
	C392.999359,86.012115 392.999359,83.248657 392.999268,79.997116 
M407.992920,104.981735 
	C397.751953,104.981735 387.510986,104.981735 377.289398,104.981735 
	C377.289398,110.629395 377.289398,115.685593 377.289398,121.081848 
	C388.029297,121.081848 398.474976,121.081848 408.981781,122.007103 
	C408.981781,132.247910 408.981781,142.488724 408.981781,152.711151 
	C414.630310,152.711151 419.686157,152.711151 425.079254,152.711151 
	C425.079254,141.972275 425.079254,131.527130 426.004242,121.018547 
	C436.245544,121.018547 446.486816,121.018547 456.711670,121.018547 
	C456.711670,115.372597 456.711670,110.316528 456.711670,104.920753 
	C445.972900,104.920753 435.527405,104.920753 425.018494,103.995766 
	C425.018494,93.754311 425.018494,83.512856 425.018494,73.288971 
	C419.371765,73.288971 414.315552,73.288971 408.918213,73.288971 
	C408.918213,84.028717 408.918213,94.474670 407.992920,104.981735 
z"/>
<path fill="#F0D888" opacity="1.000000" stroke="none" 
	d="
M425.079254,121.081970 
	C425.079254,131.527130 425.079254,141.972275 425.079254,152.711151 
	C419.686157,152.711151 414.630310,152.711151 408.981781,152.711151 
	C408.981781,142.488724 408.981781,132.247910 408.973755,121.521286 
	C408.965698,121.035477 409.010986,120.989311 409.309631,121.283630 
	C409.739136,128.546219 409.840546,135.515198 410.007629,142.482605 
	C410.268280,153.354050 407.779388,151.770706 419.913910,152.063293 
	C423.352936,152.146210 424.131195,150.736984 424.056335,147.634201 
	C423.887787,140.648727 423.935608,133.655273 424.049561,126.667587 
	C424.080475,124.770180 424.660919,122.881737 425.011719,121.012306 
	C425.034332,121.035431 425.079254,121.081970 425.079254,121.081970 
z"/>
<path fill="#F0D888" opacity="1.000000" stroke="none" 
	d="
M425.081909,104.920753 
	C435.527405,104.920753 445.972900,104.920753 456.711670,104.920753 
	C456.711670,110.316528 456.711670,115.372597 456.711670,121.018547 
	C446.486816,121.018547 436.245544,121.018547 425.541748,121.050262 
	C425.079254,121.081970 425.034332,121.035431 425.306061,120.713623 
	C432.546112,120.260902 439.515167,120.158943 446.482635,119.992378 
	C457.357605,119.732414 455.769623,122.216164 456.063293,110.085945 
	C456.146545,106.646835 454.736786,105.868729 451.634094,105.943596 
	C444.648590,106.112152 437.655029,106.064445 430.667297,105.950508 
	C428.769928,105.919571 426.881531,105.339005 425.012146,104.988106 
	C425.035248,104.965515 425.081909,104.920753 425.081909,104.920753 
z"/>
<path fill="#F0D888" opacity="1.000000" stroke="none" 
	d="
M408.943176,121.058662 
	C398.474976,121.081848 388.029297,121.081848 377.289398,121.081848 
	C377.289398,115.685593 377.289398,110.629395 377.289398,104.981735 
	C387.510986,104.981735 397.751953,104.981735 408.478943,104.973701 
	C408.964996,104.965668 409.011322,105.011139 408.716675,105.309456 
	C401.453705,105.738800 394.484711,105.839928 387.517303,106.007767 
	C376.648743,106.269585 378.228546,103.775032 377.936615,115.914085 
	C377.853912,119.353157 379.263123,120.131226 382.365906,120.056328 
	C389.351410,119.887688 396.344940,119.935486 403.332672,120.049438 
	C405.230042,120.080368 407.118469,120.660980 409.010986,120.989311 
	C409.010986,120.989311 408.965698,121.035477 408.943176,121.058662 
z"/>
<path fill="#F0D888" opacity="1.000000" stroke="none" 
	d="
M408.941589,104.943146 
	C408.918213,94.474670 408.918213,84.028717 408.918213,73.288971 
	C414.315552,73.288971 419.371765,73.288971 425.018494,73.288971 
	C425.018494,83.512856 425.018494,93.754311 425.050201,104.458260 
	C425.081909,104.920753 425.035248,104.965515 424.713501,104.693802 
	C424.260773,97.453781 424.159302,90.484772 423.992157,83.517334 
	C423.731354,72.646187 426.221252,74.229355 414.085968,73.936607 
	C410.646973,73.853653 409.868774,75.263100 409.943665,78.365860 
	C410.112244,85.351349 410.064362,92.344826 409.950470,99.332542 
	C409.919556,101.230011 409.339386,103.118515 409.011292,105.011139 
	C409.011322,105.011139 408.964996,104.965668 408.941589,104.943146 
z"/>
<path fill="#FCD76F" opacity="1.000000" stroke="none" 
	d="
M408.716644,105.309448 
	C409.339386,103.118515 409.919556,101.230011 409.950470,99.332542 
	C410.064362,92.344826 410.112244,85.351349 409.943665,78.365860 
	C409.868774,75.263100 410.646973,73.853653 414.085968,73.936607 
	C426.221252,74.229355 423.731354,72.646187 423.992157,83.517334 
	C424.159302,90.484772 424.260773,97.453781 424.690369,104.716393 
	C426.881531,105.339005 428.769928,105.919571 430.667297,105.950508 
	C437.655029,106.064445 444.648590,106.112152 451.634094,105.943596 
	C454.736786,105.868729 456.146545,106.646835 456.063293,110.085945 
	C455.769623,122.216164 457.357605,119.732414 446.482635,119.992378 
	C439.515167,120.158943 432.546112,120.260902 425.283447,120.690506 
	C424.660919,122.881737 424.080475,124.770180 424.049561,126.667587 
	C423.935608,133.655273 423.887787,140.648727 424.056335,147.634201 
	C424.131195,150.736984 423.352936,152.146210 419.913910,152.063293 
	C407.779388,151.770706 410.268280,153.354050 410.007629,142.482605 
	C409.840546,135.515198 409.739136,128.546219 409.309631,121.283630 
	C407.118469,120.660980 405.230042,120.080368 403.332672,120.049438 
	C396.344940,119.935486 389.351410,119.887688 382.365906,120.056328 
	C379.263123,120.131226 377.853912,119.353157 377.936615,115.914085 
	C378.228546,103.775032 376.648743,106.269585 387.517303,106.007767 
	C394.484711,105.839928 401.453705,105.738800 408.716644,105.309448 
z"/>
</svg>